<svg width="192" height="48" viewBox="0 0 192 48" fill="none" xmlns="http://www.w3.org/2000/svg">
<path d="M0 22.0806H2.58523C2.89546 22.0806 3.24016 21.8894 3.61933 21.5071C3.96403 21.177 4.1967 20.8555 4.31734 20.5428L6.74746 14.0006C7.17833 12.819 7.94529 11.8285 9.04832 11.0292C10.1514 10.2125 11.3147 9.80419 12.5384 9.80419H15.3821V13.8963H12.5384C12.1765 13.8963 11.7887 14.0614 11.375 14.3915C10.9614 14.7217 10.6856 15.0692 10.5478 15.4341L8.14349 21.9763C7.71262 23.1231 6.98875 24.0962 5.97189 24.8955C4.90333 25.747 3.77444 26.1727 2.58523 26.1727H0V22.0806Z" fill="url(#paint0_linear_569_2636)"/>
<path d="M21.8073 12.1239H26.1505V16.2682H23.2291L24.7027 20.5688C25.0647 21.5767 25.642 22.0806 26.4348 22.0806H29.0201V26.1727H26.4348C25.2456 26.1727 24.1254 25.7643 23.074 24.9477C22.0399 24.1136 21.3161 23.1145 20.9024 21.9502L16.6626 9.67387H20.9541L21.8073 12.1239Z" fill="url(#paint1_linear_569_2636)"/>
<path d="M38.0419 9.30897C40.3859 9.30897 42.3679 10.1691 43.988 11.8894C45.6253 13.5922 46.4439 15.634 46.4439 18.0145C46.4439 20.3777 45.6253 22.4194 43.988 24.1397C42.3679 25.8599 40.3859 26.72 38.0419 26.72C35.698 26.72 33.7074 25.8599 32.07 24.1397C30.4327 22.4194 29.6141 20.3777 29.6141 18.0145C29.6141 15.634 30.4327 13.5922 32.07 11.8894C33.7074 10.1691 35.698 9.30897 38.0419 9.30897ZM38.0419 22.6019C39.2484 22.6019 40.2738 22.1501 41.1184 21.2465C41.9629 20.3256 42.3851 19.2482 42.3851 18.0145C42.3851 16.7634 41.9629 15.6861 41.1184 14.7825C40.2738 13.8616 39.2484 13.4011 38.0419 13.4011C36.8182 13.4011 35.7842 13.8616 34.9396 14.7825C34.0951 15.6861 33.6729 16.7634 33.6729 18.0145C33.6729 19.2482 34.0951 20.3256 34.9396 21.2465C35.7842 22.1501 36.8182 22.6019 38.0419 22.6019Z" fill="url(#paint2_linear_569_2636)"/>
<path d="M55.4709 9.25684C57.6424 9.25684 59.4866 10.0822 61.0033 11.733C62.4682 13.3316 63.2007 15.243 63.2007 17.4672V26.1727H59.1419V17.4672C59.1419 16.3898 58.7886 15.4428 58.0819 14.6261C57.3925 13.7921 56.5222 13.375 55.4709 13.375C54.4195 13.375 53.5405 13.7921 52.8339 14.6261C52.1445 15.4428 51.7998 16.3898 51.7998 17.4672V26.1727H47.741V17.4672C47.741 15.243 48.4821 13.3229 49.9643 11.7069C51.4637 10.0735 53.2993 9.25684 55.4709 9.25684Z" fill="url(#paint3_linear_569_2636)"/>
<path d="M64.5046 17.8842C64.5046 15.6253 65.2802 13.6791 66.8313 12.0457C68.3997 10.4124 70.2956 9.59568 72.5189 9.59568H76.0348C77.3446 9.59568 78.4649 10.0648 79.3956 11.0032C80.3263 11.9415 80.7916 13.0709 80.7916 14.3915V15.1474C80.7916 16.468 80.3263 17.6062 79.3956 18.5619C78.4649 19.5002 77.3446 19.9693 76.0348 19.9693H70.6058V15.8251H76.0348C76.4829 15.8251 76.7069 15.5992 76.7069 15.1474C76.7069 14.6435 76.6897 14.3394 76.6552 14.2352C76.5863 13.8876 76.3795 13.7139 76.0348 13.7139H72.5189C71.4158 13.7139 70.4851 14.1309 69.7268 14.965C68.9857 15.7816 68.6152 16.7547 68.6152 17.8842C68.6152 18.9963 68.9857 19.9693 69.7268 20.8034C70.4851 21.6201 71.4158 22.0284 72.5189 22.0284H80.2487V26.1727H72.5189C70.2956 26.1727 68.3997 25.356 66.8313 23.7226C65.2802 22.0893 64.5046 20.1431 64.5046 17.8842Z" fill="url(#paint4_linear_569_2636)"/>
<path d="M106.408 9.23077C104.633 9.23077 103.091 9.86501 101.781 11.1335C100.488 9.86501 98.9455 9.23077 97.1531 9.23077C95.3262 9.23077 93.7578 9.89107 92.448 11.2117C91.1381 12.5323 90.4832 14.1222 90.4832 15.9815V26.1727H94.5937V15.9815C94.5937 15.2517 94.8436 14.6348 95.3434 14.1309C95.8433 13.627 96.4465 13.375 97.1531 13.375C97.877 13.375 98.4888 13.627 98.9886 14.1309C99.4884 14.6348 99.7383 15.2517 99.7383 15.9815V26.1727H103.849V15.9815C103.849 15.2517 104.099 14.6348 104.599 14.1309C105.098 13.627 105.702 13.375 106.408 13.375C107.132 13.375 107.744 13.627 108.244 14.1309C108.744 14.6348 108.993 15.2517 108.993 15.9815V26.1727H113.104V15.9815C113.104 14.1222 112.449 12.5323 111.139 11.2117C109.829 9.89107 108.252 9.23077 106.408 9.23077Z" fill="url(#paint5_linear_569_2636)"/>
<path d="M119.304 19.9954C119.097 19.9954 118.907 20.0823 118.735 20.2561C118.58 20.4124 118.502 20.6036 118.502 20.8295C118.502 21.6288 118.769 22.0284 119.304 22.0284H125.043V26.1727H119.304C117.959 26.1727 116.804 25.6862 115.839 24.7131C114.874 23.74 114.392 22.5758 114.392 21.2204V20.8295C114.392 19.4567 114.874 18.2838 115.839 17.3108C116.804 16.3377 117.959 15.8512 119.304 15.8512H124.009C123.785 15.1735 123.578 14.7043 123.388 14.4437C123.061 14.0266 122.621 13.8181 122.07 13.8181H115.788V9.67387H122.07C123.276 9.67387 124.422 10.1083 125.508 10.9771C126.542 11.7938 127.266 12.7929 127.68 13.9745L131.919 26.1727H127.576L125.431 19.9954H119.304Z" fill="url(#paint6_linear_569_2636)"/>
<path d="M137.492 26.1727L141.24 15.2777C141.602 14.2699 142.18 13.766 142.972 13.766H145.558V9.67387H142.972C141.783 9.67387 140.663 10.0909 139.612 10.925C138.577 11.7417 137.854 12.7321 137.44 13.8963L133.2 26.1727H137.492Z" fill="url(#paint7_linear_569_2636)"/>
<path d="M154.278 17.389C154.209 17.667 154.175 17.9276 154.175 18.1709C154.175 19.5089 155.148 20.5341 157.096 21.2465C158.527 21.7678 160.052 22.0284 161.672 22.0284V26.1727H161.232C158.992 26.2248 156.82 25.6862 154.718 24.5567C152.236 23.2187 150.986 21.4985 150.969 19.3959V26.1727H146.858V9.67387H150.969V15.382L151.072 15.2777L156.786 9.67387H161.93L156.837 14.7825C156.269 15.3559 155.416 16.2247 154.278 17.389Z" fill="url(#paint8_linear_569_2636)"/>
<path d="M162.082 17.8842C162.082 15.6253 162.858 13.6791 164.409 12.0457C165.977 10.4124 167.873 9.59568 170.096 9.59568H173.612C174.922 9.59568 176.042 10.0648 176.973 11.0032C177.904 11.9415 178.369 13.0709 178.369 14.3915V15.1474C178.369 16.468 177.904 17.6062 176.973 18.5619C176.042 19.5002 174.922 19.9693 173.612 19.9693H168.183V15.8251H173.612C174.06 15.8251 174.284 15.5992 174.284 15.1474C174.284 14.6435 174.267 14.3394 174.233 14.2352C174.164 13.8876 173.957 13.7139 173.612 13.7139H170.096C168.993 13.7139 168.063 14.1309 167.304 14.965C166.563 15.7816 166.193 16.7547 166.193 17.8842C166.193 18.9963 166.563 19.9693 167.304 20.8034C168.063 21.6201 168.993 22.0284 170.096 22.0284H177.826V26.1727H170.096C167.873 26.1727 165.977 25.356 164.409 23.7226C162.858 22.0893 162.082 20.1431 162.082 17.8842Z" fill="url(#paint9_linear_569_2636)"/>
<path d="M183.864 12.1239H188.207V16.2682H185.286L186.76 20.5688C187.121 21.5767 187.699 22.0806 188.492 22.0806H191.077V26.1727H188.492C187.302 26.1727 186.182 25.7643 185.131 24.9477C184.097 24.1136 183.373 23.1145 182.959 21.9502L178.719 9.67387H183.011L183.864 12.1239Z" fill="url(#paint10_linear_569_2636)"/>
<path d="M12.1135 38.6864L11.8062 37.1952H10.4105L10.1031 38.6864H9.33877L10.5683 33.0696H11.6649L12.8778 38.6864H12.1135ZM10.5434 36.5242H11.6649L11.1 33.7986L10.5434 36.5242Z" fill="url(#paint11_linear_569_2636)"/>
<path d="M19.2758 36.4993V38.6864H18.4949V33.0696H20.0069C20.45 33.0696 20.7878 33.18 21.0204 33.4009C21.2586 33.6219 21.3777 33.9284 21.3777 34.3205V35.2152C21.3777 35.8283 21.1423 36.2232 20.6715 36.3999L21.5687 38.6864H20.7047L19.8989 36.4993H19.2758ZM19.2758 33.7489V35.8448H19.9404C20.173 35.8448 20.3392 35.7924 20.4389 35.6874C20.5441 35.5825 20.5967 35.4223 20.5967 35.2069V34.3702C20.5967 33.956 20.378 33.7489 19.9404 33.7489H19.2758Z" fill="url(#paint12_linear_569_2636)"/>
<path d="M31.4704 33.0696V38.6864H30.7227V36.0271C30.7227 35.4582 30.7504 34.9032 30.8058 34.3619L29.759 37.2118H29.0362L27.9895 34.3619C28.0449 34.8756 28.0725 35.4279 28.0725 36.0188V38.6864H27.3332V33.0696H28.2055L29.4018 36.3999L30.5981 33.0696H31.4704Z" fill="url(#paint13_linear_569_2636)"/>
<path d="M37.4857 33.0696H40.0528V33.7572H38.2667V35.5052H39.8202V36.1928H38.2667V38.0071H40.0528V38.6864H37.4857V33.0696Z" fill="url(#paint14_linear_569_2636)"/>
<path d="M48.255 33.0696H49.0276V38.6864H48.1968C47.3273 36.4717 46.7596 35.0026 46.4937 34.2791C46.4937 34.3398 46.5048 34.4669 46.527 34.6602C46.5713 35.1407 46.5934 35.6736 46.5934 36.2591V38.6864H45.8291V33.0696H46.6682C47.4381 35.0136 47.9061 36.2176 48.0722 36.6816C48.2384 37.1455 48.3325 37.4078 48.3547 37.4686C48.3547 37.4189 48.3381 37.1759 48.3048 36.7396C48.2771 36.2977 48.2605 35.8725 48.255 35.4638V33.0696Z" fill="url(#paint15_linear_569_2636)"/>
<path d="M55.0406 33.0696H55.8298V38.6864H55.0406V33.0696Z" fill="url(#paint16_linear_569_2636)"/>
<path d="M64.2021 38.6864L63.8947 37.1952H62.499L62.1917 38.6864H61.4273L62.6569 33.0696H63.7535L64.9664 38.6864H64.2021ZM62.632 36.5242H63.7535L63.1886 33.7986L62.632 36.5242Z" fill="url(#paint17_linear_569_2636)"/>
<path d="M73.0093 33.0696H73.7819V38.6864H72.9512C72.0816 36.4717 71.5139 35.0026 71.2481 34.2791C71.2481 34.3398 71.2592 34.4669 71.2813 34.6602C71.3256 35.1407 71.3478 35.6736 71.3478 36.2591V38.6864H70.5835V33.0696H71.4225C72.1924 35.0136 72.6604 36.2176 72.8265 36.6816C72.9927 37.1455 73.0868 37.4078 73.109 37.4686C73.109 37.4189 73.0924 37.1759 73.0592 36.7396C73.0315 36.2977 73.0148 35.8725 73.0093 35.4638V33.0696Z" fill="url(#paint18_linear_569_2636)"/>
<path d="M86.0463 34.2625C86.0463 33.8704 86.1737 33.5666 86.4284 33.3512C86.6887 33.1358 87.057 33.0282 87.5334 33.0282C88.0097 33.0282 88.3974 33.0779 88.6964 33.1773V33.9229C88.3974 33.8069 88.0346 33.7489 87.6081 33.7489C87.093 33.7489 86.8355 33.9394 86.8355 34.3205V34.6436C86.8355 34.8203 86.8687 34.9612 86.9352 35.0661C87.0072 35.1655 87.1318 35.2649 87.309 35.3643L88.2727 35.9028C88.7214 36.1458 88.9457 36.5131 88.9457 37.0047V37.4686C88.9457 37.8718 88.8044 38.1838 88.522 38.4047C88.2395 38.6201 87.8407 38.7278 87.3257 38.7278C86.8161 38.7278 86.4063 38.6698 86.0961 38.5538V37.8082C86.4617 37.9408 86.8466 38.0071 87.2509 38.0071C87.8546 38.0071 88.1564 37.8027 88.1564 37.394V37.1124C88.1564 36.9467 88.126 36.8196 88.065 36.7313C88.0041 36.6374 87.8906 36.5463 87.7244 36.4579L86.7857 35.9443C86.2927 35.6792 86.0463 35.2843 86.0463 34.7596V34.2625Z" fill="url(#paint19_linear_569_2636)"/>
<path d="M97.1646 33.0696V33.7572H96.0929V38.6864H95.3037V33.7572H94.232V33.0696H97.1646Z" fill="url(#paint20_linear_569_2636)"/>
<path d="M104.867 34.3785C104.867 33.9256 104.626 33.6992 104.144 33.6992C103.663 33.6992 103.422 33.9256 103.422 34.3785V37.3775C103.422 37.8359 103.663 38.0651 104.144 38.0651C104.626 38.0651 104.867 37.8359 104.867 37.3775V34.3785ZM102.641 34.3537C102.641 33.9394 102.765 33.6081 103.015 33.3595C103.269 33.111 103.643 32.9867 104.136 32.9867C104.635 32.9867 105.011 33.1138 105.266 33.3678C105.521 33.6163 105.648 33.945 105.648 34.3537V37.4106C105.648 37.8193 105.521 38.1479 105.266 38.3964C105.011 38.645 104.637 38.7692 104.144 38.7692C103.652 38.7692 103.278 38.645 103.023 38.3964C102.768 38.1479 102.641 37.8193 102.641 37.4106V34.3537Z" fill="url(#paint21_linear_569_2636)"/>
<path d="M114.004 33.0696H114.777V38.6864H113.946C113.076 36.4717 112.509 35.0026 112.243 34.2791C112.243 34.3398 112.254 34.4669 112.276 34.6602C112.321 35.1407 112.343 35.6736 112.343 36.2591V38.6864H111.578V33.0696H112.417C113.187 35.0136 113.655 36.2176 113.821 36.6816C113.988 37.1455 114.082 37.4078 114.104 37.4686C114.104 37.4189 114.087 37.1759 114.054 36.7396C114.026 36.2977 114.01 35.8725 114.004 35.4638V33.0696Z" fill="url(#paint22_linear_569_2636)"/>
<path d="M120.79 33.0696H123.357V33.7572H121.571V35.5052H123.124V36.1928H121.571V38.0071H123.357V38.6864H120.79V33.0696Z" fill="url(#paint23_linear_569_2636)"/>
<path d="M128.834 34.2625C128.834 33.8704 128.962 33.5666 129.216 33.3512C129.477 33.1358 129.845 33.0282 130.321 33.0282C130.798 33.0282 131.185 33.0779 131.484 33.1773V33.9229C131.185 33.8069 130.822 33.7489 130.396 33.7489C129.881 33.7489 129.623 33.9394 129.623 34.3205V34.6436C129.623 34.8203 129.657 34.9612 129.723 35.0661C129.795 35.1655 129.92 35.2649 130.097 35.3643L131.061 35.9028C131.509 36.1458 131.734 36.5131 131.734 37.0047V37.4686C131.734 37.8718 131.592 38.1838 131.31 38.4047C131.027 38.6201 130.629 38.7278 130.114 38.7278C129.604 38.7278 129.194 38.6698 128.884 38.5538V37.8082C129.25 37.9408 129.634 38.0071 130.039 38.0071C130.642 38.0071 130.944 37.8027 130.944 37.394V37.1124C130.944 36.9467 130.914 36.8196 130.853 36.7313C130.792 36.6374 130.678 36.5463 130.512 36.4579L129.574 35.9443C129.081 35.6792 128.834 35.2843 128.834 34.7596V34.2625Z" fill="url(#paint24_linear_569_2636)"/>
<path d="M143.72 34.2625C143.72 33.8704 143.847 33.5666 144.102 33.3512C144.362 33.1358 144.731 33.0282 145.207 33.0282C145.683 33.0282 146.071 33.0779 146.37 33.1773V33.9229C146.071 33.8069 145.708 33.7489 145.282 33.7489C144.767 33.7489 144.509 33.9394 144.509 34.3205V34.6436C144.509 34.8203 144.542 34.9612 144.609 35.0661C144.681 35.1655 144.805 35.2649 144.983 35.3643L145.946 35.9028C146.395 36.1458 146.619 36.5131 146.619 37.0047V37.4686C146.619 37.8718 146.478 38.1838 146.196 38.4047C145.913 38.6201 145.514 38.7278 144.999 38.7278C144.49 38.7278 144.08 38.6698 143.77 38.5538V37.8082C144.135 37.9408 144.52 38.0071 144.924 38.0071C145.528 38.0071 145.83 37.8027 145.83 37.394V37.1124C145.83 36.9467 145.8 36.8196 145.739 36.7313C145.678 36.6374 145.564 36.5463 145.398 36.4579L144.459 35.9443C143.966 35.6792 143.72 35.2843 143.72 34.7596V34.2625Z" fill="url(#paint25_linear_569_2636)"/>
<path d="M154.722 38.6864L154.414 37.1952H153.019L152.711 38.6864H151.947L153.177 33.0696H154.273L155.486 38.6864H154.722ZM153.152 36.5242H154.273L153.708 33.7986L153.152 36.5242Z" fill="url(#paint26_linear_569_2636)"/>
<path d="M161.103 33.0696H161.892V38.0154H163.537V38.6864H161.103V33.0696Z" fill="url(#paint27_linear_569_2636)"/>
<path d="M169.082 33.0696H171.649V33.7572H169.862V35.5052H171.416V36.1928H169.862V38.0071H171.649V38.6864H169.082V33.0696Z" fill="url(#paint28_linear_569_2636)"/>
<path d="M177.126 34.2625C177.126 33.8704 177.253 33.5666 177.508 33.3512C177.768 33.1358 178.137 33.0282 178.613 33.0282C179.089 33.0282 179.477 33.0779 179.776 33.1773V33.9229C179.477 33.8069 179.114 33.7489 178.688 33.7489C178.173 33.7489 177.915 33.9394 177.915 34.3205V34.6436C177.915 34.8203 177.948 34.9612 178.015 35.0661C178.087 35.1655 178.211 35.2649 178.389 35.3643L179.352 35.9028C179.801 36.1458 180.025 36.5131 180.025 37.0047V37.4686C180.025 37.8718 179.884 38.1838 179.602 38.4047C179.319 38.6201 178.92 38.7278 178.405 38.7278C177.896 38.7278 177.486 38.6698 177.176 38.5538V37.8082C177.541 37.9408 177.926 38.0071 178.33 38.0071C178.934 38.0071 179.236 37.8027 179.236 37.394V37.1124C179.236 36.9467 179.206 36.8196 179.145 36.7313C179.084 36.6374 178.97 36.5463 178.804 36.4579L177.865 35.9443C177.372 35.6792 177.126 35.2843 177.126 34.7596V34.2625Z" fill="url(#paint29_linear_569_2636)"/>
<defs>
<linearGradient id="paint0_linear_569_2636" x1="0" y1="9.23077" x2="8.91951" y2="66.9288" gradientUnits="userSpaceOnUse">
<stop stop-color="#00C389"/>
<stop offset="1" stop-color="#00E7A2"/>
</linearGradient>
<linearGradient id="paint1_linear_569_2636" x1="0" y1="9.23077" x2="8.91951" y2="66.9288" gradientUnits="userSpaceOnUse">
<stop stop-color="#00C389"/>
<stop offset="1" stop-color="#00E7A2"/>
</linearGradient>
<linearGradient id="paint2_linear_569_2636" x1="0" y1="9.23077" x2="8.91951" y2="66.9288" gradientUnits="userSpaceOnUse">
<stop stop-color="#00C389"/>
<stop offset="1" stop-color="#00E7A2"/>
</linearGradient>
<linearGradient id="paint3_linear_569_2636" x1="0" y1="9.23077" x2="8.91951" y2="66.9288" gradientUnits="userSpaceOnUse">
<stop stop-color="#00C389"/>
<stop offset="1" stop-color="#00E7A2"/>
</linearGradient>
<linearGradient id="paint4_linear_569_2636" x1="0" y1="9.23077" x2="8.91951" y2="66.9288" gradientUnits="userSpaceOnUse">
<stop stop-color="#00C389"/>
<stop offset="1" stop-color="#00E7A2"/>
</linearGradient>
<linearGradient id="paint5_linear_569_2636" x1="0" y1="9.23077" x2="8.91951" y2="66.9288" gradientUnits="userSpaceOnUse">
<stop stop-color="#00C389"/>
<stop offset="1" stop-color="#00E7A2"/>
</linearGradient>
<linearGradient id="paint6_linear_569_2636" x1="0" y1="9.23077" x2="8.91951" y2="66.9288" gradientUnits="userSpaceOnUse">
<stop stop-color="#00C389"/>
<stop offset="1" stop-color="#00E7A2"/>
</linearGradient>
<linearGradient id="paint7_linear_569_2636" x1="0" y1="9.23077" x2="8.91951" y2="66.9288" gradientUnits="userSpaceOnUse">
<stop stop-color="#00C389"/>
<stop offset="1" stop-color="#00E7A2"/>
</linearGradient>
<linearGradient id="paint8_linear_569_2636" x1="0" y1="9.23077" x2="8.91951" y2="66.9288" gradientUnits="userSpaceOnUse">
<stop stop-color="#00C389"/>
<stop offset="1" stop-color="#00E7A2"/>
</linearGradient>
<linearGradient id="paint9_linear_569_2636" x1="0" y1="9.23077" x2="8.91951" y2="66.9288" gradientUnits="userSpaceOnUse">
<stop stop-color="#00C389"/>
<stop offset="1" stop-color="#00E7A2"/>
</linearGradient>
<linearGradient id="paint10_linear_569_2636" x1="0" y1="9.23077" x2="8.91951" y2="66.9288" gradientUnits="userSpaceOnUse">
<stop stop-color="#00C389"/>
<stop offset="1" stop-color="#00E7A2"/>
</linearGradient>
<linearGradient id="paint11_linear_569_2636" x1="0" y1="9.23077" x2="8.91951" y2="66.9288" gradientUnits="userSpaceOnUse">
<stop stop-color="#00C389"/>
<stop offset="1" stop-color="#00E7A2"/>
</linearGradient>
<linearGradient id="paint12_linear_569_2636" x1="0" y1="9.23077" x2="8.91951" y2="66.9288" gradientUnits="userSpaceOnUse">
<stop stop-color="#00C389"/>
<stop offset="1" stop-color="#00E7A2"/>
</linearGradient>
<linearGradient id="paint13_linear_569_2636" x1="0" y1="9.23077" x2="8.91951" y2="66.9288" gradientUnits="userSpaceOnUse">
<stop stop-color="#00C389"/>
<stop offset="1" stop-color="#00E7A2"/>
</linearGradient>
<linearGradient id="paint14_linear_569_2636" x1="0" y1="9.23077" x2="8.91951" y2="66.9288" gradientUnits="userSpaceOnUse">
<stop stop-color="#00C389"/>
<stop offset="1" stop-color="#00E7A2"/>
</linearGradient>
<linearGradient id="paint15_linear_569_2636" x1="0" y1="9.23077" x2="8.91951" y2="66.9288" gradientUnits="userSpaceOnUse">
<stop stop-color="#00C389"/>
<stop offset="1" stop-color="#00E7A2"/>
</linearGradient>
<linearGradient id="paint16_linear_569_2636" x1="0" y1="9.23077" x2="8.91951" y2="66.9288" gradientUnits="userSpaceOnUse">
<stop stop-color="#00C389"/>
<stop offset="1" stop-color="#00E7A2"/>
</linearGradient>
<linearGradient id="paint17_linear_569_2636" x1="0" y1="9.23077" x2="8.91951" y2="66.9288" gradientUnits="userSpaceOnUse">
<stop stop-color="#00C389"/>
<stop offset="1" stop-color="#00E7A2"/>
</linearGradient>
<linearGradient id="paint18_linear_569_2636" x1="0" y1="9.23077" x2="8.91951" y2="66.9288" gradientUnits="userSpaceOnUse">
<stop stop-color="#00C389"/>
<stop offset="1" stop-color="#00E7A2"/>
</linearGradient>
<linearGradient id="paint19_linear_569_2636" x1="0" y1="9.23077" x2="8.91951" y2="66.9288" gradientUnits="userSpaceOnUse">
<stop stop-color="#00C389"/>
<stop offset="1" stop-color="#00E7A2"/>
</linearGradient>
<linearGradient id="paint20_linear_569_2636" x1="0" y1="9.23077" x2="8.91951" y2="66.9288" gradientUnits="userSpaceOnUse">
<stop stop-color="#00C389"/>
<stop offset="1" stop-color="#00E7A2"/>
</linearGradient>
<linearGradient id="paint21_linear_569_2636" x1="0" y1="9.23077" x2="8.91951" y2="66.9288" gradientUnits="userSpaceOnUse">
<stop stop-color="#00C389"/>
<stop offset="1" stop-color="#00E7A2"/>
</linearGradient>
<linearGradient id="paint22_linear_569_2636" x1="0" y1="9.23077" x2="8.91951" y2="66.9288" gradientUnits="userSpaceOnUse">
<stop stop-color="#00C389"/>
<stop offset="1" stop-color="#00E7A2"/>
</linearGradient>
<linearGradient id="paint23_linear_569_2636" x1="0" y1="9.23077" x2="8.91951" y2="66.9288" gradientUnits="userSpaceOnUse">
<stop stop-color="#00C389"/>
<stop offset="1" stop-color="#00E7A2"/>
</linearGradient>
<linearGradient id="paint24_linear_569_2636" x1="0" y1="9.23077" x2="8.91951" y2="66.9288" gradientUnits="userSpaceOnUse">
<stop stop-color="#00C389"/>
<stop offset="1" stop-color="#00E7A2"/>
</linearGradient>
<linearGradient id="paint25_linear_569_2636" x1="0" y1="9.23077" x2="8.91951" y2="66.9288" gradientUnits="userSpaceOnUse">
<stop stop-color="#00C389"/>
<stop offset="1" stop-color="#00E7A2"/>
</linearGradient>
<linearGradient id="paint26_linear_569_2636" x1="0" y1="9.23077" x2="8.91951" y2="66.9288" gradientUnits="userSpaceOnUse">
<stop stop-color="#00C389"/>
<stop offset="1" stop-color="#00E7A2"/>
</linearGradient>
<linearGradient id="paint27_linear_569_2636" x1="0" y1="9.23077" x2="8.91951" y2="66.9288" gradientUnits="userSpaceOnUse">
<stop stop-color="#00C389"/>
<stop offset="1" stop-color="#00E7A2"/>
</linearGradient>
<linearGradient id="paint28_linear_569_2636" x1="0" y1="9.23077" x2="8.91951" y2="66.9288" gradientUnits="userSpaceOnUse">
<stop stop-color="#00C389"/>
<stop offset="1" stop-color="#00E7A2"/>
</linearGradient>
<linearGradient id="paint29_linear_569_2636" x1="0" y1="9.23077" x2="8.91951" y2="66.9288" gradientUnits="userSpaceOnUse">
<stop stop-color="#00C389"/>
<stop offset="1" stop-color="#00E7A2"/>
</linearGradient>
</defs>
</svg>
