<svg width="32" height="32" viewBox="0 0 32 32" fill="none" xmlns="http://www.w3.org/2000/svg">
<rect width="32" height="32" rx="16" fill="url(#paint0_linear_1356_10864)"/>
<path d="M20.0314 24H11.9739C11.6435 24 11.3696 23.7249 11.3696 23.3931C11.3696 23.0613 11.6435 22.7862 11.9739 22.7862H20.0314C20.3618 22.7862 20.6357 23.0613 20.6357 23.3931C20.6357 23.7249 20.3618 24 20.0314 24Z" fill="white"/>
<path d="M22.7307 10.6643L19.5077 12.9786C19.0806 13.2861 18.4683 13.1 18.2829 12.6064L16.7601 8.52801C16.5022 7.824 15.5111 7.824 15.2533 8.52801L13.7224 12.5983C13.537 13.1 12.9327 13.2861 12.5057 12.9705L9.28265 10.6562C8.63804 10.2031 7.78394 10.8423 8.04984 11.5949L11.4018 21.0221C11.5146 21.3458 11.8208 21.5562 12.1592 21.5562H19.838C20.1765 21.5562 20.4826 21.3377 20.5954 21.0221L23.9474 11.5949C24.2213 10.8423 23.3672 10.2031 22.7307 10.6643ZM18.017 18.1333H13.9883C13.6579 18.1333 13.3839 17.8581 13.3839 17.5264C13.3839 17.1946 13.6579 16.9195 13.9883 16.9195H18.017C18.3474 16.9195 18.6213 17.1946 18.6213 17.5264C18.6213 17.8581 18.3474 18.1333 18.017 18.1333Z" fill="white"/>
<defs>
<linearGradient id="paint0_linear_1356_10864" x1="0" y1="0" x2="32" y2="32" gradientUnits="userSpaceOnUse">
<stop stop-color="#00C389"/>
<stop offset="1" stop-color="#00E7A2"/>
</linearGradient>
</defs>
</svg>
