<svg width="368" height="200" viewBox="0 0 368 200" fill="none" xmlns="http://www.w3.org/2000/svg">
<rect x="0.5" y="0.5" width="367" height="199" rx="7.5" stroke="#A5A5A5"/>
<path d="M193.98 105.67C194 105.45 194 105.23 194 105V99C194 94 192 92 187 92H181C176 92 174 94 174 99V105C174 110 176 112 181 112H187C187.23 112 187.46 112 187.67 111.98M193.98 105.67C193.94 105.61 193.89 105.55 193.84 105.5C193.83 105.49 193.82 105.47 193.81 105.46C193 104.56 191.81 104 190.5 104C189.24 104 188.09 104.52 187.27 105.36C186.48 106.17 186 107.28 186 108.5C186 109.34 186.24 110.14 186.65 110.82C186.87 111.19 187.15 111.53 187.47 111.81C187.49 111.82 187.5 111.83 187.51 111.84C187.56 111.89 187.61 111.93 187.67 111.98M193.98 105.67C194.62 106.44 195 107.43 195 108.5C195 108.86 194.96 109.21 194.87 109.55C194.76 110 194.58 110.43 194.35 110.82C193.57 112.12 192.14 113 190.5 113C189.42 113 188.44 112.62 187.68 111.98C187.67 111.98 187.67 111.98 187.67 111.98M174.52 97.11H193.48M180.52 92.11V96.97M187.48 92.11V96.52M192.18 108.48H188.82M190.5 106.84V110.2" stroke="#A5A5A5" stroke-linecap="round" stroke-linejoin="round"/>
</svg>
