<svg width="16" height="16" viewBox="0 0 16 16" fill="none" xmlns="http://www.w3.org/2000/svg">
<path d="M2 14.3333C2 11.7533 4.56666 9.66667 7.72667 9.66667C8.36667 9.66667 8.98667 9.75333 9.56667 9.91333M10.6867 11.6667L11.3467 12.3267L12.7667 11.0133M11.06 4.33333C11.06 6.17428 9.56761 7.66667 7.72666 7.66667C5.88571 7.66667 4.39333 6.17428 4.39333 4.33333C4.39333 2.49238 5.88571 1 7.72666 1C9.56761 1 11.06 2.49238 11.06 4.33333ZM14.3933 11.6667C14.3933 12.1667 14.2533 12.64 14.0067 13.04C13.8667 13.28 13.6867 13.4933 13.48 13.6667C13.0133 14.0867 12.4 14.3333 11.7267 14.3333C10.7533 14.3333 9.90666 13.8133 9.44666 13.04C9.19999 12.64 9.06 12.1667 9.06 11.6667C9.06 10.8267 9.44666 10.0733 10.06 9.58667C10.52 9.22 11.1 9 11.7267 9C13.2 9 14.3933 10.1933 14.3933 11.6667Z" stroke="#101920" stroke-linecap="round" stroke-linejoin="round"/>
</svg>
