<svg width="16" height="16" viewBox="0 0 16 16" fill="none" xmlns="http://www.w3.org/2000/svg">
<path d="M8.33335 14.6667H2.72002C1.94669 14.6667 1.31335 14.0467 1.31335 13.2867V3.39339C1.31335 1.64673 2.61335 0.853393 4.20669 1.63339L7.16669 3.08673C7.80669 3.40006 8.33335 4.23339 8.33335 4.94006V9.80339V14.6667ZM8.33335 14.6667L12.54 14.6667C13.98 14.6667 14.6467 14.0001 14.6467 12.5601V10.0401C14.6467 9.99339 14.6467 9.95339 14.64 9.91339C14.6 8.63339 13.88 8.18006 13 7.98673L11.6467 7.68673L8.64669 7.01339L8.33335 6.94673V14.6667ZM3.66669 6.00006H5.98002M3.66669 8.66673H5.98002" stroke="url(#paint0_linear_216_2150)" stroke-linecap="round" stroke-linejoin="round"/>
<defs>
<linearGradient id="paint0_linear_216_2150" x1="1.31335" y1="1.33316" x2="14.6469" y2="14.6665" gradientUnits="userSpaceOnUse">
<stop stop-color="#00C389"/>
<stop offset="1" stop-color="#00E7A2"/>
</linearGradient>
</defs>
</svg>
