<svg width="16" height="16" viewBox="0 0 16 16" fill="none" xmlns="http://www.w3.org/2000/svg">
<path d="M8.00004 2.66666H11.3334C14 2.66666 14.6667 3.33332 14.6667 5.99999V6.66666C13.7467 6.66666 13 7.41332 13 8.33332C13 9.25332 13.7467 9.99999 14.6667 9.99999C14.6667 12.6667 14 13.3333 11.3334 13.3333H8.00004M8.00004 2.66666H4.66671C2.00004 2.66666 1.33337 3.33332 1.33337 5.99999V6.33332C2.25337 6.33332 3.00004 7.07999 3.00004 7.99999C3.00004 8.91999 2.25337 9.66666 1.33337 9.66666V9.99999C1.33337 12.6667 2.00004 13.3333 4.66671 13.3333H8.00004M8.00004 2.66666V4.5M8.00004 13.3333V11" stroke="#101920" stroke-linecap="round" stroke-linejoin="round"/>
</svg>
