<svg width="16" height="16" viewBox="0 0 16 16" fill="none" xmlns="http://www.w3.org/2000/svg">
<path d="M2 14.3333C2 11.7533 4.56668 9.66667 7.72668 9.66667M14.3934 14.3333L13.7267 13.6667M11.06 4.33333C11.06 6.17428 9.56763 7.66667 7.72668 7.66667C5.88574 7.66667 4.39335 6.17428 4.39335 4.33333C4.39335 2.49238 5.88574 1 7.72668 1C9.56763 1 11.06 2.49238 11.06 4.33333ZM13.9934 11.8C13.9934 12.9782 13.0382 13.9333 11.86 13.9333C10.6818 13.9333 9.72668 12.9782 9.72668 11.8C9.72668 10.6218 10.6818 9.66667 11.86 9.66667C13.0382 9.66667 13.9934 10.6218 13.9934 11.8Z" stroke="#101920" stroke-linecap="round" stroke-linejoin="round"/>
</svg>
