<svg width="16" height="16" viewBox="0 0 16 16" fill="none" xmlns="http://www.w3.org/2000/svg">
<path d="M7.31335 1.33334H5.98002C2.64669 1.33334 1.31335 2.66667 1.31335 6V10C1.31335 13.3333 2.64669 14.6667 5.98002 14.6667H9.98002C13.3134 14.6667 14.6467 13.3333 14.6467 10V8.66667M10.5467 7.98667C10.5467 6.59334 9.42002 5.46 8.02002 5.46M14.5867 2.37334C13.7667 4.42 11.7067 7.20667 9.98669 8.58667L8.93335 9.42667C8.80002 9.52667 8.66669 9.60667 8.51335 9.66667C8.51335 9.56667 8.50669 9.46667 8.49335 9.36C8.43335 8.91334 8.23335 8.49334 7.87335 8.14C7.50669 7.77334 7.06669 7.56667 6.61335 7.50667C6.50669 7.5 6.40002 7.49334 6.29335 7.5C6.35335 7.33334 6.44002 7.18 6.55335 7.05334L7.39335 6C8.77335 4.28 11.5667 2.20667 13.6067 1.38667C13.92 1.26667 14.2267 1.36 14.42 1.55334C14.62 1.75334 14.7134 2.06 14.5867 2.37334ZM8.52002 9.66C8.52002 10.2467 8.29336 10.8067 7.87336 11.2333C7.54669 11.56 7.10669 11.7867 6.58002 11.8533L5.26669 11.9933C4.55335 12.0733 3.94002 11.4667 4.02002 10.74L4.16002 9.42667C4.28669 8.26001 5.26002 7.51334 6.30002 7.49334C6.40669 7.48667 6.51336 7.49334 6.62002 7.5C7.07336 7.56 7.51335 7.76667 7.88002 8.13334C8.24002 8.49334 8.44002 8.90667 8.50002 9.35334C8.51336 9.46 8.52002 9.56667 8.52002 9.66Z" stroke="#101920" stroke-linecap="round"/>
</svg>
