<svg width="16" height="16" viewBox="0 0 16 16" fill="none" xmlns="http://www.w3.org/2000/svg">
<path d="M2 7.33333C2 7.89333 2.42 8.53999 2.93333 8.76666L7.46 10.78C7.80667 10.9333 8.2 10.9333 8.54 10.78L13.0667 8.76666C13.58 8.53999 14 7.89333 14 7.33333M2 10.6667C2 11.2867 2.36667 11.8467 2.93333 12.1L7.46 14.1133C7.80667 14.2667 8.2 14.2667 8.54 14.1133L13.0667 12.1C13.6333 11.8467 14 11.2867 14 10.6667M8.67333 1.94666L12.6067 3.69333C13.74 4.19333 13.74 5.01999 12.6067 5.51999L8.67333 7.26666C8.22667 7.46666 7.49333 7.46666 7.04667 7.26666L3.11333 5.51999C1.98 5.01999 1.98 4.19333 3.11333 3.69333L7.04667 1.94666C7.49333 1.74666 8.22667 1.74666 8.67333 1.94666Z" stroke="#101920" stroke-linecap="round" stroke-linejoin="round"/>
</svg>
