<svg width="16" height="16" viewBox="0 0 16 16" fill="none" xmlns="http://www.w3.org/2000/svg">
<path d="M9.68671 6.31334L6.31337 9.68668M9.68671 6.31334C9.25337 5.88001 8.66004 5.61334 8.00004 5.61334C6.68004 5.61334 5.61337 6.68001 5.61337 8.00001C5.61337 8.66001 5.88004 9.25334 6.31337 9.68668M9.68671 6.31334L14.6667 1.33334M6.31337 9.68668L1.33337 14.6667M11.88 3.84668C10.7134 2.96668 9.38004 2.48668 8.00004 2.48668C5.64671 2.48668 3.45337 3.87334 1.92671 6.27334C1.32671 7.21334 1.32671 8.79334 1.92671 9.73334C2.45337 10.56 3.06671 11.2733 3.73337 11.8467M5.61337 13.02C6.37337 13.34 7.18004 13.5133 8.00004 13.5133C10.3534 13.5133 12.5467 12.1267 14.0734 9.72668C14.6734 8.78668 14.6734 7.20668 14.0734 6.26668C13.8534 5.92001 13.6134 5.59334 13.3667 5.28668M10.34 8.46668C10.1667 9.40668 9.40004 10.1733 8.46004 10.3467" stroke="#101920" stroke-linecap="round" stroke-linejoin="round"/>
</svg>
