<svg width="16" height="16" viewBox="0 0 16 16" fill="none" xmlns="http://www.w3.org/2000/svg">
<path d="M14.6666 5.67998V2.65331C14.6666 1.71331 14.24 1.33331 13.18 1.33331H10.4866C9.42665 1.33331 8.99998 1.71331 8.99998 2.65331V5.67331C8.99998 6.61998 9.42665 6.99331 10.4866 6.99331H13.18C14.24 6.99998 14.6666 6.61998 14.6666 5.67998Z" stroke="#101920" stroke-linecap="round" stroke-linejoin="round"/>
<path d="M14.6666 13.18V10.4866C14.6666 9.42665 14.24 8.99998 13.18 8.99998H10.4866C9.42665 8.99998 8.99998 9.42665 8.99998 10.4866V13.18C8.99998 14.24 9.42665 14.6666 10.4866 14.6666H13.18C14.24 14.6666 14.6666 14.24 14.6666 13.18Z" stroke="#101920" stroke-linecap="round" stroke-linejoin="round"/>
<path d="M6.99998 5.67998V2.65331C6.99998 1.71331 6.57331 1.33331 5.51331 1.33331H2.81998C1.75998 1.33331 1.33331 1.71331 1.33331 2.65331V5.67331C1.33331 6.61998 1.75998 6.99331 2.81998 6.99331H5.51331C6.57331 6.99998 6.99998 6.61998 6.99998 5.67998Z" stroke="#101920" stroke-linecap="round" stroke-linejoin="round"/>
<path d="M6.99998 13.18V10.4866C6.99998 9.42665 6.57331 8.99998 5.51331 8.99998H2.81998C1.75998 8.99998 1.33331 9.42665 1.33331 10.4866V13.18C1.33331 14.24 1.75998 14.6666 2.81998 14.6666H5.51331C6.57331 14.6666 6.99998 14.24 6.99998 13.18Z" stroke="#101920" stroke-linecap="round" stroke-linejoin="round"/>
</svg>
