<svg width="16" height="16" viewBox="0 0 16 16" fill="none" xmlns="http://www.w3.org/2000/svg">
<path d="M13.3334 8.13331V9.26669C13.3334 11.3667 12.1334 12.2667 10.3334 12.2667H4.33337C2.53337 12.2667 1.33337 11.3667 1.33337 9.26669V5.66668C1.33337 3.56668 2.53337 2.66668 4.33337 2.66668H6.13337M13.3334 8.13331C13.08 8.21998 12.8 8.26669 12.5 8.26669H10.7667L8.84004 9.55331C8.55337 9.73998 8.16671 9.53337 8.16671 9.19337V8.26669C7.52004 8.26669 6.97337 8.05335 6.59337 7.67335C6.21337 7.29335 6.00004 6.74669 6.00004 6.10003V3.50001C6.00004 3.20001 6.04671 2.92001 6.13337 2.66668M13.3334 8.13331C14.16 7.83998 14.6667 7.09336 14.6667 6.10003V3.50001C14.6667 2.20001 13.8 1.33334 12.5 1.33334H8.16671C7.17337 1.33334 6.42671 1.84001 6.13337 2.66668M4.93337 14.6667H9.73337M7.33337 12.2667V14.6667" stroke="#101920" stroke-miterlimit="10" stroke-linecap="round" stroke-linejoin="round"/>
<path d="M12.3303 4.83333H12.3363" stroke="#101920" stroke-linecap="round" stroke-linejoin="round"/>
<path d="M10.4638 4.83333H10.4698" stroke="#101920" stroke-linecap="round" stroke-linejoin="round"/>
<path d="M8.59694 4.83333H8.60294" stroke="#101920" stroke-linecap="round" stroke-linejoin="round"/>
</svg>
