<svg width="16" height="16" viewBox="0 0 16 16" fill="none" xmlns="http://www.w3.org/2000/svg">
<path d="M1.78016 12.633L5.06683 10.4263C5.5935 10.073 6.3535 10.113 6.82683 10.5197L7.04683 10.713C7.56683 11.1597 8.40683 11.1597 8.92683 10.713L11.7002 8.33301C12.2202 7.88634 13.0602 7.88634 13.5802 8.33301L14.6668 9.26634M6.00016 14.6663H10.0002C13.3335 14.6663 14.6668 13.333 14.6668 9.99967V5.99967C14.6668 2.66634 13.3335 1.33301 10.0002 1.33301H6.00016C2.66683 1.33301 1.3335 2.66634 1.3335 5.99967V9.99967C1.3335 13.333 2.66683 14.6663 6.00016 14.6663ZM7.3335 5.33301C7.3335 6.06939 6.73654 6.66634 6.00016 6.66634C5.26378 6.66634 4.66683 6.06939 4.66683 5.33301C4.66683 4.59663 5.26378 3.99967 6.00016 3.99967C6.73654 3.99967 7.3335 4.59663 7.3335 5.33301Z" stroke="#101920" stroke-linecap="round" stroke-linejoin="round"/>
</svg>
