<svg width="16" height="16" viewBox="0 0 16 16" fill="none" xmlns="http://www.w3.org/2000/svg">
<path d="M3.63333 9.24L4.06169 9.49791L4.0628 9.49603L3.63333 9.24ZM2.86666 10.5133L2.43831 10.2554L2.43824 10.2556L2.86666 10.5133ZM3.58666 12.4667L3.42636 12.9403L3.42822 12.9409L3.58666 12.4667ZM12.4333 12.4667L12.2764 11.9919L12.2749 11.9924L12.4333 12.4667ZM13.1533 10.5133L13.5821 10.2561L13.5817 10.2554L13.1533 10.5133ZM12.3867 9.24L11.9535 9.48991L11.9583 9.49791L12.3867 9.24ZM9.24666 2.13333L9.10726 2.61351C9.29022 2.66663 9.48747 2.61115 9.61592 2.47045C9.74438 2.32975 9.78171 2.12828 9.71219 1.9509L9.24666 2.13333ZM8.60666 2L8.54465 2.49614L8.5465 2.49637L8.60666 2ZM6.78 2.13333L6.31447 1.9509C6.24494 2.12831 6.2823 2.32982 6.4108 2.47052C6.53929 2.61122 6.73659 2.66665 6.91957 2.61346L6.78 2.13333ZM8.01333 1.44C5.53052 1.44 3.51333 3.45719 3.51333 5.94H4.51333C4.51333 4.00948 6.08281 2.44 8.01333 2.44V1.44ZM3.51333 5.94V7.86667H4.51333V5.94H3.51333ZM3.51333 7.86667C3.51333 8.00976 3.48095 8.21911 3.41905 8.4421C3.35719 8.66493 3.277 8.86128 3.20386 8.98397L4.0628 9.49603C4.19633 9.27205 4.30614 8.98508 4.38261 8.70957C4.45905 8.43423 4.51333 8.13024 4.51333 7.86667H3.51333ZM3.20498 8.98209L2.43831 10.2554L3.29501 10.7712L4.06168 9.49791L3.20498 8.98209ZM2.43824 10.2556C2.13088 10.7664 2.06675 11.3395 2.25528 11.8486C2.44359 12.3572 2.86476 12.7502 3.42637 12.9403L3.74696 11.9931C3.4419 11.8898 3.26641 11.6995 3.19305 11.5014C3.11992 11.3039 3.12911 11.047 3.29509 10.7711L2.43824 10.2556ZM3.42822 12.9409C6.40439 13.9353 9.61561 13.9353 12.5918 12.9409L12.2749 11.9924C9.50439 12.9181 6.51561 12.9181 3.74511 11.9924L3.42822 12.9409ZM12.5903 12.9414C13.703 12.5736 14.1859 11.2625 13.5821 10.2561L12.7246 10.7706C13.0007 11.2309 12.777 11.8264 12.2764 11.9919L12.5903 12.9414ZM13.5817 10.2554L12.815 8.98209L11.9583 9.49791L12.725 10.7712L13.5817 10.2554ZM12.8198 8.99014C12.7478 8.86545 12.6685 8.66707 12.6072 8.44359C12.5458 8.21957 12.5133 8.00991 12.5133 7.86667H11.5133C11.5133 8.13009 11.5676 8.43377 11.6428 8.70808C11.7182 8.98293 11.8255 9.26788 11.9536 9.48986L12.8198 8.99014ZM12.5133 7.86667V5.94H11.5133V7.86667H12.5133ZM12.5133 5.94C12.5133 3.46386 10.4895 1.44 8.01333 1.44V2.44C9.93719 2.44 11.5133 4.01614 11.5133 5.94H12.5133ZM9.38607 1.65316C9.15767 1.58685 8.91766 1.53404 8.66683 1.50363L8.5465 2.49637C8.73567 2.5193 8.92232 2.55982 9.10726 2.61351L9.38607 1.65316ZM8.66868 1.50386C7.96495 1.4159 7.2828 1.46647 6.64043 1.65321L6.91957 2.61346C7.42386 2.46686 7.96837 2.42411 8.54465 2.49614L8.66868 1.50386ZM7.24553 2.31577C7.36589 2.00863 7.66476 1.79333 8.01333 1.79333V0.793335C7.2419 0.793335 6.58077 1.27138 6.31447 1.9509L7.24553 2.31577ZM8.01333 1.79333C8.3619 1.79333 8.66077 2.00863 8.78114 2.31577L9.71219 1.9509C9.44589 1.27138 8.78476 0.793335 8.01333 0.793335V1.79333ZM9.51333 12.7067C9.51333 13.5305 8.83719 14.2067 8.01333 14.2067V15.2067C9.38947 15.2067 10.5133 14.0828 10.5133 12.7067H9.51333ZM8.01333 14.2067C7.60499 14.2067 7.2239 14.0368 6.95355 13.7664L6.24644 14.4736C6.69609 14.9232 7.32834 15.2067 8.01333 15.2067V14.2067ZM6.95355 13.7664C6.6832 13.4961 6.51333 13.115 6.51333 12.7067H5.51333C5.51333 13.3917 5.79679 14.0239 6.24644 14.4736L6.95355 13.7664Z" fill="#101920"/>
</svg>
