<svg width="16" height="16" viewBox="0 0 16 16" fill="none" xmlns="http://www.w3.org/2000/svg">
<path d="M11.3133 9.62668C12.2266 9.78002 13.2333 9.62002 13.94 9.14668C14.88 8.52002 14.88 7.49335 13.94 6.86668C13.2266 6.39335 12.2066 6.23335 11.2933 6.39335M4.66663 9.62668C3.75329 9.78002 2.74663 9.62002 2.03996 9.14668C1.09996 8.52002 1.09996 7.49335 2.03996 6.86668C2.75329 6.39335 3.77329 6.23335 4.68663 6.39335M12 4.77335C11.96 4.76668 11.9133 4.76668 11.8733 4.77335C10.9533 4.74001 10.22 3.98668 10.22 3.05334C10.22 2.10001 10.9866 1.33334 11.94 1.33334C12.8933 1.33334 13.66 2.10668 13.66 3.05334C13.6533 3.98668 12.92 4.74001 12 4.77335ZM3.97996 4.77335C4.01996 4.76668 4.06663 4.76668 4.10663 4.77335C5.02663 4.74001 5.75996 3.98668 5.75996 3.05334C5.75996 2.10001 4.99329 1.33334 4.03996 1.33334C3.08663 1.33334 2.31996 2.10668 2.31996 3.05334C2.32663 3.98668 3.05996 4.74001 3.97996 4.77335ZM7.99996 9.75335C7.95996 9.74668 7.91329 9.74668 7.87329 9.75335C6.95329 9.72001 6.21996 8.96668 6.21996 8.03335C6.21996 7.08001 6.98663 6.31334 7.93996 6.31334C8.89329 6.31334 9.65996 7.08668 9.65996 8.03335C9.65329 8.96668 8.91996 9.72668 7.99996 9.75335ZM6.05996 11.8533C5.11996 12.48 5.11996 13.5067 6.05996 14.1333C7.12663 14.8467 8.87329 14.8467 9.93996 14.1333C10.88 13.5067 10.88 12.48 9.93996 11.8533C8.87996 11.1467 7.12663 11.1467 6.05996 11.8533Z" stroke="url(#paint0_linear_198_3239)" stroke-linecap="round" stroke-linejoin="round"/>
<defs>
<linearGradient id="paint0_linear_198_3239" x1="1.33496" y1="1.33334" x2="14.6699" y2="14.6433" gradientUnits="userSpaceOnUse">
<stop stop-color="#00C389"/>
<stop offset="1" stop-color="#00E7A2"/>
</linearGradient>
</defs>
</svg>
