<svg width="16" height="16" viewBox="0 0 16 16" fill="none" xmlns="http://www.w3.org/2000/svg">
<path d="M14.6466 12.22C14.6466 12.46 14.5933 12.7066 14.48 12.9466C14.3666 13.1866 14.22 13.4133 14.0266 13.6266C13.7 13.9866 13.34 14.2466 12.9333 14.4133C12.5333 14.58 12.1 14.6666 11.6333 14.6666C10.9533 14.6666 10.2266 14.5066 9.45998 14.18C8.69331 13.8533 7.92665 13.4133 7.16665 12.86C6.39998 12.3 5.67331 11.68 4.97998 10.9933C4.29331 10.3 3.67331 9.57331 3.11998 8.81331C2.57331 8.05331 2.13331 7.29331 1.81331 6.53998C1.49331 5.77998 1.33331 5.05331 1.33331 4.35998C1.33331 3.90665 1.41331 3.47331 1.57331 3.07331C1.73331 2.66665 1.98665 2.29331 2.33998 1.95998C2.76665 1.53998 3.23331 1.33331 3.72665 1.33331C3.91331 1.33331 4.09998 1.37331 4.26665 1.45331C4.43998 1.53331 4.59331 1.65331 4.71331 1.82665L6.25998 4.00665C6.37998 4.17331 6.46665 4.32665 6.52665 4.47331C6.58665 4.61331 6.61998 4.75331 6.61998 4.87998C6.61998 5.03998 6.57331 5.19998 6.47998 5.35331C6.39331 5.50665 6.26665 5.66665 6.10665 5.82665L5.59998 6.35331C5.52665 6.42665 5.49331 6.51331 5.49331 6.61998C5.49331 6.67331 5.49998 6.71998 5.51331 6.77331C5.53331 6.82665 5.55331 6.86665 5.56665 6.90665C5.68665 7.12665 5.89331 7.41331 6.18665 7.75998C6.48665 8.10665 6.80665 8.45998 7.15331 8.81331C7.51331 9.16665 7.85998 9.49331 8.21331 9.79331C8.55998 10.0866 8.84665 10.2866 9.07331 10.4066C9.10665 10.42 9.14665 10.44 9.19331 10.46C9.24665 10.48 9.29998 10.4866 9.35998 10.4866C9.47331 10.4866 9.55998 10.4466 9.63331 10.3733L10.14 9.87331C10.3066 9.70665 10.4666 9.57998 10.62 9.49998C10.7733 9.40665 10.9266 9.35998 11.0933 9.35998C11.22 9.35998 11.3533 9.38665 11.5 9.44665C11.6466 9.50665 11.8 9.59331 11.9666 9.70665L14.1733 11.2733C14.3466 11.3933 14.4666 11.5333 14.54 11.7C14.6066 11.8666 14.6466 12.0333 14.6466 12.22Z" stroke="url(#paint0_linear_199_4311)" stroke-miterlimit="10"/>
<defs>
<linearGradient id="paint0_linear_199_4311" x1="1.33331" y1="1.33331" x2="14.6666" y2="14.6466" gradientUnits="userSpaceOnUse">
<stop stop-color="#00C389"/>
<stop offset="1" stop-color="#00E7A2"/>
</linearGradient>
</defs>
</svg>
