<svg width="16" height="16" viewBox="0 0 16 16" fill="none" xmlns="http://www.w3.org/2000/svg">
<path d="M7.37589 9.96634L6.14071 11.1997C5.88032 11.4597 5.46636 11.4597 5.19929 11.2063C5.12585 11.133 5.05241 11.0663 4.97896 10.993C4.29127 10.2997 3.67033 9.57301 3.11617 8.81301C2.56868 8.05301 2.12802 7.29301 1.80754 6.53967C1.49374 5.77967 1.3335 5.05301 1.3335 4.35967C1.3335 3.90634 1.41362 3.47301 1.57386 3.07301C1.7341 2.66634 1.98781 2.29301 2.34168 1.95967C2.76898 1.53967 3.23635 1.33301 3.73042 1.33301C3.91737 1.33301 4.10432 1.37301 4.27124 1.45301C4.44483 1.53301 4.59839 1.65301 4.71857 1.82634L6.26756 4.00634C6.38774 4.17301 6.47454 4.32634 6.53463 4.47301C6.59472 4.61301 6.6281 4.75301 6.6281 4.87967C6.6281 5.03967 6.58137 5.19967 6.48789 5.35301C6.4011 5.50634 6.27424 5.66634 6.114 5.82634L5.60657 6.35301C5.53313 6.42634 5.49975 6.51301 5.49975 6.61967C5.49975 6.67301 5.50642 6.71967 5.51978 6.77301C5.53981 6.82634 5.55984 6.86634 5.57319 6.90634C5.69337 7.12634 5.90035 7.41301 6.19412 7.75967C6.49457 8.10634 6.81505 8.45967 7.16224 8.81301C7.22901 8.87967 7.30245 8.94634 7.36922 9.01301C7.63628 9.27301 7.64296 9.69967 7.37589 9.96634Z" fill="white"/>
<path d="M14.6668 12.2197C14.6668 12.4063 14.6334 12.5997 14.5667 12.7863C14.5466 12.8397 14.5266 12.893 14.4999 12.9463C14.3864 13.1863 14.2395 13.413 14.0459 13.6263C13.7187 13.9863 13.3582 14.2463 12.9509 14.413C12.9442 14.413 12.9376 14.4197 12.9309 14.4197C12.537 14.5797 12.1097 14.6663 11.649 14.6663C10.9679 14.6663 10.2402 14.5063 9.47237 14.1797C8.70455 13.853 7.93673 13.413 7.17559 12.8597C6.9152 12.6663 6.65481 12.473 6.40777 12.2663L8.59105 10.0863C8.778 10.2263 8.94491 10.333 9.08512 10.4063C9.11851 10.4197 9.15857 10.4397 9.2053 10.4597C9.25872 10.4797 9.31213 10.4863 9.37222 10.4863C9.48572 10.4863 9.57252 10.4463 9.64596 10.373L10.1534 9.87301C10.3203 9.70634 10.4805 9.57967 10.6341 9.49967C10.7877 9.40634 10.9412 9.35967 11.1082 9.35967C11.235 9.35967 11.3685 9.38634 11.5154 9.44634C11.6623 9.50634 11.8159 9.59301 11.9828 9.70634L14.1928 11.273C14.3664 11.393 14.4866 11.533 14.56 11.6997C14.6268 11.8663 14.6668 12.033 14.6668 12.2197Z" fill="white"/>
</svg>
