<svg width="16" height="16" viewBox="0 0 16 16" fill="none" xmlns="http://www.w3.org/2000/svg">
<path d="M2.9365 10.3509L3.29006 9.99736H3.29006L2.9365 10.3509ZM5.9565 13.3709L5.60295 13.7245H5.60295L5.9565 13.3709ZM10.4565 13.3709L10.8091 13.7254L10.8101 13.7245L10.4565 13.3709ZM13.3832 10.4442L13.0296 10.0907L13.3832 10.4442ZM13.3832 5.94424L13.7377 5.59164L13.7359 5.58991L13.3832 5.94424ZM10.3565 2.93091L10.0029 3.28447L10.0037 3.28524L10.3565 2.93091ZM7.9565 2.00424L7.98048 2.50367L7.98259 2.50356L7.9565 2.00424ZM4.62317 2.16424L4.64565 2.66374L4.64714 2.66367L4.62317 2.16424ZM2.16317 4.61091L1.6638 4.58582L1.66375 4.58694L2.16317 4.61091ZM2.00317 7.94424L1.50374 7.92027L1.50366 7.92204L2.00317 7.94424ZM8.46962 11.1307C8.27435 11.326 8.27435 11.6425 8.46962 11.8378C8.66488 12.0331 8.98146 12.0331 9.17672 11.8378L8.46962 11.1307ZM11.8434 9.17113C12.0387 8.97587 12.0387 8.65929 11.8434 8.46403C11.6481 8.26876 11.3315 8.26876 11.1363 8.46403L11.8434 9.17113ZM2.58295 10.7045L5.60295 13.7245L6.31006 13.0174L3.29006 9.99736L2.58295 10.7045ZM5.60295 13.7245C7.03873 15.1602 9.36792 15.1589 10.8091 13.7254L10.1039 13.0164C9.05175 14.0629 7.35427 14.0616 6.31006 13.0174L5.60295 13.7245ZM10.8101 13.7245L13.7367 10.7978L13.0296 10.0907L10.103 13.0174L10.8101 13.7245ZM13.7367 10.7978C15.1725 9.36201 15.1711 7.03283 13.7377 5.59164L13.0287 6.29685C14.0752 7.349 14.0738 9.04647 13.0296 10.0907L13.7367 10.7978ZM13.7359 5.58991L10.7093 2.57658L10.0037 3.28524L13.0304 6.29858L13.7359 5.58991ZM10.7101 2.57736C9.9779 1.8452 8.96714 1.45077 7.93042 1.50493L7.98259 2.50356C8.73254 2.46439 9.46844 2.74996 10.003 3.28447L10.7101 2.57736ZM7.93253 1.50482L4.5992 1.66482L4.64714 2.66367L7.98048 2.50367L7.93253 1.50482ZM4.60069 1.66475C3.00924 1.73637 1.74337 3.00239 1.6638 4.58582L2.66254 4.63601C2.7163 3.5661 3.57044 2.71212 4.64565 2.66374L4.60069 1.66475ZM1.66375 4.58694L1.50375 7.92027L2.5026 7.96822L2.6626 4.63488L1.66375 4.58694ZM1.50366 7.92204C1.45744 8.96209 1.8503 9.97181 2.58295 10.7045L3.29006 9.99736C2.75604 9.46334 2.4689 8.7264 2.50268 7.96644L1.50366 7.92204ZM7.6565 6.48424C7.6565 7.12858 7.13417 7.65091 6.48984 7.65091V8.65091C7.68645 8.65091 8.6565 7.68086 8.6565 6.48424H7.6565ZM6.48984 7.65091C5.8455 7.65091 5.32317 7.12858 5.32317 6.48424H4.32317C4.32317 7.68086 5.29322 8.65091 6.48984 8.65091V7.65091ZM5.32317 6.48424C5.32317 5.83991 5.8455 5.31758 6.48984 5.31758V4.31758C5.29322 4.31758 4.32317 5.28763 4.32317 6.48424H5.32317ZM6.48984 5.31758C7.13417 5.31758 7.6565 5.83991 7.6565 6.48424H8.6565C8.6565 5.28763 7.68645 4.31758 6.48984 4.31758V5.31758ZM9.17672 11.8378L11.8434 9.17113L11.1363 8.46403L8.46962 11.1307L9.17672 11.8378Z" fill="url(#paint0_linear_60_1646)"/>
<defs>
<linearGradient id="paint0_linear_60_1646" x1="2" y1="2" x2="14.3009" y2="14.3132" gradientUnits="userSpaceOnUse">
<stop stop-color="#00C389"/>
<stop offset="1" stop-color="#00E7A2"/>
</linearGradient>
</defs>
</svg>
