<svg width="16" height="16" viewBox="0 0 16 16" fill="none" xmlns="http://www.w3.org/2000/svg">
<path d="M6.03332 7.91321L7.10665 8.98654L9.97332 6.11988M6.99332 1.48654L3.66665 2.73988C2.89998 3.02654 2.27332 3.93321 2.27332 4.74654V9.69988C2.27332 10.4865 2.79332 11.5199 3.42665 11.9932L6.29332 14.1332C7.23332 14.8399 8.77998 14.8399 9.71998 14.1332L12.5866 11.9932C13.22 11.5199 13.74 10.4865 13.74 9.69988V4.74654C13.74 3.92654 13.1133 3.01988 12.3466 2.73321L9.01998 1.48654C8.45332 1.27988 7.54665 1.27988 6.99332 1.48654Z" stroke="url(#paint0_linear_569_7761)" stroke-linecap="round" stroke-linejoin="round"/>
<defs>
<linearGradient id="paint0_linear_569_7761" x1="2.27332" y1="1.33154" x2="15.455" y2="12.6692" gradientUnits="userSpaceOnUse">
<stop stop-color="#00C389"/>
<stop offset="1" stop-color="#00E7A2"/>
</linearGradient>
</defs>
</svg>
