<svg width="16" height="16" viewBox="0 0 16 16" fill="none" xmlns="http://www.w3.org/2000/svg">
<path d="M5.67245 3.93068L2.81911 9.66908C0.899113 13.5237 2.47245 15.1058 6.30578 13.1751L7.46578 12.5919C7.80578 12.4243 8.19911 12.4243 8.53911 12.5919L9.69245 13.1751C13.5258 15.1058 15.0991 13.5304 13.1791 9.66908L10.3258 3.93068C9.04578 1.35644 6.95245 1.35644 5.67245 3.93068ZM8.49911 6.09598L8.49911 9.716C8.49911 9.99086 8.27245 10.2188 7.99911 10.2188C7.72578 10.2188 7.49911 9.99086 7.49911 9.716L7.49911 6.09598C7.49911 5.82113 7.72578 5.5932 7.99911 5.5932C8.27245 5.5932 8.49911 5.82113 8.49911 6.09598Z" fill="#101920"/>
</svg>
