<svg width="16" height="16" viewBox="0 0 16 16" fill="none" xmlns="http://www.w3.org/2000/svg">
<path d="M4.46672 6.17331L8.00004 8.21998L11.5067 6.18665M8.00004 11.8466V8.21331M14.6667 9.99998C14.6667 12.58 12.58 14.6666 10 14.6666L10.7 13.5M1.33337 5.99998C1.33337 3.41998 3.42004 1.33331 6.00004 1.33331L5.30005 2.49998M7.17338 4.19331L5.04004 5.37998C4.56004 5.64665 4.16003 6.31998 4.16003 6.87331V9.13331C4.16003 9.68665 4.55337 10.36 5.04004 10.6266L7.17338 11.8133C7.62671 12.0666 8.37337 12.0666 8.83337 11.8133L10.9667 10.6266C11.4467 10.36 11.8467 9.68665 11.8467 9.13331V6.86665C11.8467 6.31332 11.4534 5.63998 10.9667 5.37331L8.83337 4.18665C8.37337 3.93331 7.62671 3.93331 7.17338 4.19331Z" stroke="url(#paint0_linear_216_2436)" stroke-linecap="round" stroke-linejoin="round"/>
<defs>
<linearGradient id="paint0_linear_216_2436" x1="1.33337" y1="1.33331" x2="14.6667" y2="14.6666" gradientUnits="userSpaceOnUse">
<stop stop-color="#00C389"/>
<stop offset="1" stop-color="#00E7A2"/>
</linearGradient>
</defs>
</svg>
