<svg width="16" height="16" viewBox="0 0 16 16" fill="none" xmlns="http://www.w3.org/2000/svg">
<path d="M8.83333 9.33331H11.6667M6 12H11.6667M14 4.66665V11.3333C14 13.3333 13 14.6666 10.6667 14.6666H5.33333C3 14.6666 2 13.3333 2 11.3333V4.66665C2 2.66665 3 1.33331 5.33333 1.33331H10.6667C13 1.33331 14 2.66665 14 4.66665ZM10.3333 1.33331V6.5733C10.3333 6.86664 9.98665 7.0133 9.77331 6.81997L8.22668 5.39333C8.10002 5.27333 7.89998 5.27333 7.77331 5.39333L6.22668 6.81997C6.01335 7.0133 5.66667 6.86664 5.66667 6.5733V1.33331H10.3333Z" stroke="url(#paint0_linear_199_4329)" stroke-miterlimit="10" stroke-linecap="round" stroke-linejoin="round"/>
<defs>
<linearGradient id="paint0_linear_199_4329" x1="2" y1="1.33331" x2="15.2597" y2="13.267" gradientUnits="userSpaceOnUse">
<stop stop-color="#00C389"/>
<stop offset="1" stop-color="#00E7A2"/>
</linearGradient>
</defs>
</svg>
