<svg width="16" height="16" viewBox="0 0 16 16" fill="none" xmlns="http://www.w3.org/2000/svg">
<path d="M12.7067 12.4468L11.28 9.60018L9.85337 12.4468M10.1134 11.9401H12.46M6.0067 3.90015H3.30004M4.64671 3.44682V3.90015M5.32671 3.89351C5.32671 5.06018 4.41338 6.00684 3.29338 6.00684M6.0067 6.00684C5.52004 6.00684 5.08004 5.74683 4.77338 5.3335M1.33337 10.0002C1.33337 12.5802 3.42004 14.6668 6.00004 14.6668L5.30004 13.5002M14.6667 6.00016C14.6667 3.42016 12.58 1.3335 10 1.3335L10.7 2.50016M11.28 14.6668C9.41337 14.6668 7.89337 13.1535 7.89337 11.2802C7.89337 9.41348 9.40671 7.89351 11.28 7.89351C13.1467 7.89351 14.6667 9.40682 14.6667 11.2802C14.6667 13.1535 13.1534 14.6668 11.28 14.6668ZM3.34671 1.3335H5.96004C7.34004 1.3335 8.00671 2.00018 7.97338 3.34684V5.96016C8.00671 7.34016 7.34004 8.00684 5.96004 7.97351H3.34671C2.00004 8.00018 1.33337 7.33349 1.33337 5.95349V3.34017C1.33337 2.00017 2.00004 1.3335 3.34671 1.3335Z" stroke="#101920" stroke-linecap="round" stroke-linejoin="round"/>
</svg>
