<svg width="16" height="16" viewBox="0 0 16 16" fill="none" xmlns="http://www.w3.org/2000/svg">
<path d="M1.68004 4.73998H14.32M5.68004 1.40665V4.64665M10.32 1.40665V4.34665M14.6667 9.99998V5.99998C14.6667 2.66665 13.3334 1.33331 10 1.33331H6.00004C2.66671 1.33331 1.33337 2.66665 1.33337 5.99998V9.99998C1.33337 13.3333 2.66671 14.6666 6.00004 14.6666H10C13.3334 14.6666 14.6667 13.3333 14.6667 9.99998ZM6.50004 8.83331C6.50004 7.80665 7.22671 7.38665 8.11337 7.89998L9.50004 8.69998C10.3867 9.21331 10.3867 10.0533 9.50004 10.5666L8.11337 11.3666C7.22671 11.88 6.50004 11.46 6.50004 10.4333V8.83331Z" stroke="#101920" stroke-linecap="round" stroke-linejoin="round"/>
</svg>
